<svg width="50" height="50" viewBox="0 0 50 50" fill="none" xmlns="http://www.w3.org/2000/svg">
<path d="M2.49947 30.0004H7.49947V47.5004C7.49947 48.1634 7.76286 48.7993 8.2317 49.2681C8.70054 49.737 9.33643 50.0004 9.99947 50.0004H39.9995C40.6625 50.0004 41.2984 49.737 41.7672 49.2681C42.2361 48.7993 42.4995 48.1634 42.4995 47.5004V30.0004H47.4995C47.9826 30.0008 48.4555 29.8609 48.8607 29.5978C49.2658 29.3346 49.5859 28.9594 49.782 28.5179C49.9794 28.0765 50.0443 27.5873 49.9689 27.1098C49.8934 26.6322 49.6808 26.1869 49.357 25.8279L26.857 0.827871C25.9095 -0.227129 24.0895 -0.227129 23.142 0.827871L0.641967 25.8279C0.318695 26.187 0.106437 26.6322 0.0308768 27.1095C-0.0446834 27.5867 0.0196927 28.0757 0.216216 28.5171C0.412739 28.9586 0.732986 29.3336 1.13821 29.5968C1.54343 29.8601 2.01625 30.0002 2.49947 30.0004ZM16.632 24.1029C17.6725 23.0755 19.076 22.4995 20.5382 22.4995C22.0005 22.4995 23.4039 23.0755 24.4445 24.1029L25.0045 24.6529L25.562 24.1029C26.603 23.0754 28.0068 22.4993 29.4695 22.4993C30.9321 22.4993 32.336 23.0754 33.377 24.1029C33.8934 24.5997 34.3043 25.1957 34.5849 25.8551C34.8655 26.5145 35.0102 27.2237 35.0102 27.9404C35.0102 28.657 34.8655 29.3663 34.5849 30.0257C34.3043 30.6851 33.8934 31.281 33.377 31.7779L25.0045 40.0004L16.632 31.7779C16.1155 31.281 15.7047 30.6851 15.424 30.0257C15.1434 29.3663 14.9987 28.657 14.9987 27.9404C14.9987 27.2237 15.1434 26.5145 15.424 25.8551C15.7047 25.1957 16.1155 24.5997 16.632 24.1029Z" fill="#FBBA13"/>
</svg>
