<svg width="63" height="51" viewBox="0 0 63 51" fill="none" xmlns="http://www.w3.org/2000/svg">
<path d="M31.5 25.4998L8.001 16.1128L9.45 50.6998H3.15L4.662 14.7583L0 12.8998L31.5 0.299805L63 12.8998L31.5 25.4998ZM31.5 9.74981C29.7675 9.74981 28.35 10.4428 28.35 11.3248C28.35 12.2068 29.7675 12.8998 31.5 12.8998C33.2325 12.8998 34.65 12.2068 34.65 11.3248C34.65 10.4428 33.2325 9.74981 31.5 9.74981ZM31.5 28.6498L49.0455 21.6253C51.282 24.5863 52.8255 28.1458 53.3295 32.0203C52.3845 31.8943 51.408 31.7998 50.4 31.7998C42.3675 31.7998 35.343 36.1153 31.5 42.5413C29.5494 39.2677 26.7821 36.5567 23.469 34.6738C20.156 32.7909 16.4107 31.8006 12.6 31.7998C11.592 31.7998 10.6155 31.8943 9.6705 32.0203C10.1745 28.1458 11.718 24.5863 13.9545 21.6253L31.5 28.6498Z" fill="#FBBA13"/>
</svg>
