<svg width="50" height="45" viewBox="0 0 50 45" fill="none" xmlns="http://www.w3.org/2000/svg">
<path d="M45.0004 10H37.5004V5C37.5004 2.2425 35.2579 0 32.5004 0H17.5004C14.7429 0 12.5004 2.2425 12.5004 5V10H5.00037C3.67428 10 2.40251 10.5268 1.46483 11.4645C0.52715 12.4021 0.000366211 13.6739 0.000366211 15V40C0.000366211 41.3261 0.52715 42.5979 1.46483 43.5355C2.40251 44.4732 3.67428 45 5.00037 45H45.0004C46.3265 45 47.5982 44.4732 48.5359 43.5355C49.4736 42.5979 50.0004 41.3261 50.0004 40V15C50.0004 13.6739 49.4736 12.4021 48.5359 11.4645C47.5982 10.5268 46.3265 10 45.0004 10ZM17.5004 5H32.5004V10H17.5004V5ZM35.0004 30H27.5004V37.5H22.5004V30H15.0004V25H22.5004V17.5H27.5004V25H35.0004V30Z" fill="#FBBA13"/>
</svg>
