<svg width="80" height="80" viewBox="0 0 80 80" fill="none" xmlns="http://www.w3.org/2000/svg">
<path d="M67.5002 20C62.6335 20 58.7002 23.8 58.3335 28.6L41.8335 23.8667C40.6335 23.5 39.3668 23.5 38.1668 23.8667L21.6668 28.6C21.3002 23.8 17.3668 20 12.5002 20C7.4335 20 3.3335 24.1 3.3335 29.1667V40.8333C3.3335 45.9 7.4335 50 12.5002 50H18.9335C22.7002 57.8667 30.7002 63.3333 40.0002 63.3333C49.3002 63.3333 57.3002 57.8667 61.0668 50H67.5002C72.5668 50 76.6668 45.9 76.6668 40.8333V29.1667C76.6668 24.1 72.5668 20 67.5002 20ZM16.6668 45H12.5002C10.2002 45 8.3335 43.1333 8.3335 40.8333V29.1667C8.3335 28.0616 8.77248 27.0018 9.55388 26.2204C10.3353 25.439 11.3951 25 12.5002 25C13.6052 25 14.665 25.439 15.4464 26.2204C16.2278 27.0018 16.6668 28.0616 16.6668 29.1667V45ZM50.0002 40L41.3335 37.6667C40.3335 37.3333 39.3335 37.3333 38.6668 37.6667L30.0002 40V36.6667L37.6668 34.3333C39.0002 34 40.6668 34 42.3335 34.3333L50.0002 36.6667V40ZM71.6668 40.8333C71.6668 43.1333 69.8001 45 67.5002 45H63.3335V29.1667C63.3335 28.0616 63.7725 27.0018 64.5539 26.2204C65.3353 25.439 66.3951 25 67.5002 25C68.6052 25 69.665 25.439 70.4464 26.2204C71.2278 27.0018 71.6668 28.0616 71.6668 29.1667V40.8333Z" fill="#FBBA13"/>
</svg>
