<svg width="132" height="106" viewBox="0 0 132 106" fill="none" xmlns="http://www.w3.org/2000/svg">
<g clip-path="url(#clip0)">
<path d="M102.587 58.9705L75.437 43.1892L69.6792 53.2297C65.5973 60.3477 56.507 62.7853 49.4158 58.6635C42.3247 54.5416 39.8764 45.3969 43.9583 38.2789L56.4609 16.4767L40.8588 16.731C36.229 16.7891 31.9724 19.3112 29.6693 23.3274L24.806 31.808L5.7664 31.7854C2.12875 31.7747 -0.833161 34.7386 -0.816579 38.4058L-0.777747 71.562C-0.779027 75.2189 2.18723 78.1862 5.82488 78.1969L30.4322 78.2285L54.8314 92.4109C61.1366 96.0759 69.2138 93.9099 72.8433 87.5809L75.7012 89.2421C78.8627 91.0798 82.8872 90.0005 84.7071 86.827L91.2875 75.3522L92.7164 76.1828C95.092 77.5637 98.1034 76.7561 99.4709 74.3715L104.406 65.7654C105.774 63.3808 104.963 60.3514 102.587 58.9705ZM132.814 67.5998L132.775 34.4437C132.777 30.7868 129.81 27.8195 126.173 27.8088L101.565 27.7772L83.3107 17.1663C81.1673 15.9204 78.7278 15.3153 76.2582 15.3858L68.1256 15.6549C65.8502 15.7189 63.791 16.9842 62.66 18.9564L49.674 41.6013C47.4018 45.5637 48.7586 50.6315 52.706 52.9261C56.6535 55.2206 61.6912 53.8697 63.9635 49.9073L73.0114 34.1294L105.877 53.2331C111.396 56.4413 113.299 63.5476 110.122 69.0878L107.192 74.1977L126.231 74.2202C129.879 74.213 132.813 71.2567 132.814 67.5998Z" fill="#FBBA13"/>
</g>
<defs>
<clipPath id="clip0">
<rect width="132" height="106" fill="white"/>
</clipPath>
</defs>
</svg>
