<svg width="132" height="132" viewBox="0 0 132 132" fill="none" xmlns="http://www.w3.org/2000/svg">
<g clip-path="url(#clip0)">
<path d="M20.4183 54.5119C24.4195 52.238 29.4185 53.9241 31.5841 58.0387L42.2524 79.8007C42.4524 80.2127 42.8014 80.5333 43.2289 80.6975C43.6564 80.8617 44.1304 80.8572 44.5547 80.685C44.8909 80.5511 45.1791 80.3192 45.3818 80.0195C45.5846 79.7197 45.6925 79.3659 45.6916 79.0041L45.6916 18.5625C45.6916 14.9763 49.0045 12.375 52.5933 12.375C56.182 12.375 59.2964 14.9763 59.2964 18.5625L59.2964 58.9463C59.2877 59.7004 59.5735 60.4283 60.0929 60.9752C60.6124 61.522 61.3246 61.8449 62.0782 61.875C62.4552 61.8822 62.8298 61.8142 63.1801 61.6749C63.5304 61.5356 63.8495 61.3278 64.1186 61.0638C64.3877 60.7997 64.6015 60.4846 64.7473 60.137C64.8932 59.7893 64.9683 59.4161 64.9683 59.0391V6.1875C64.9683 2.60133 67.7887 0 71.3775 0C74.9662 0 77.8589 2.60133 77.8589 6.1875V58.9463C77.8503 59.7004 78.136 60.4283 78.6554 60.9752C79.1749 61.522 79.8871 61.8449 80.6407 61.875C81.0177 61.8822 81.3923 61.8142 81.7426 61.6749C82.0929 61.5356 82.412 61.3278 82.6811 61.0638C82.9502 60.7997 83.164 60.4846 83.3099 60.137C83.4557 59.7893 83.5309 59.4161 83.5308 59.0391L83.5308 14.4375C83.5308 10.8513 86.6452 8.25 90.2339 8.25C93.8227 8.25 96.937 11.1091 96.937 14.6953L96.937 63.0713C96.9284 63.8254 97.2141 64.5533 97.7336 65.1002C98.253 65.647 98.9652 65.9699 99.7188 66C100.096 66.0072 100.47 65.9392 100.821 65.7999C101.171 65.6606 101.49 65.4528 101.759 65.1888C102.028 64.9247 102.242 64.6096 102.388 64.262C102.534 63.9143 102.609 63.5411 102.609 63.1641L102.609 30.9375C102.609 27.3513 105.465 24.75 109.054 24.75C112.643 24.75 115.53 27.3848 115.5 30.9375L115.5 86.625C115.5 116.895 96.937 132 74.2495 132H70.1245C47.437 132 40.293 121.791 35.062 109.312L17.358 65.7422C15.641 61.1016 16.4196 56.7832 20.4183 54.5119Z" fill="#FBBA13"/>
</g>
<defs>
<clipPath id="clip0">
<rect width="132" height="132" fill="white"/>
</clipPath>
</defs>
</svg>
